<?xml version="1.0" encoding="UTF-8" standalone="no"?><!DOCTYPE svg PUBLIC "-//W3C//DTD SVG 1.1//EN" "http://www.w3.org/Graphics/SVG/1.1/DTD/svg11.dtd"><svg width="100%" height="100%" viewBox="0 0 24 24" version="1.1" xmlns="http://www.w3.org/2000/svg" xmlns:xlink="http://www.w3.org/1999/xlink" xml:space="preserve" xmlns:serif="http://www.serif.com/" style="fill-rule:evenodd;clip-rule:evenodd;stroke-linejoin:round;stroke-miterlimit:1.41421;"><path id="grayDark" d="M21.545,3.751l0.065,0.002l0.064,0.004l0.064,0.006l0.063,0.007l0.063,0.009l0.062,0.01l0.062,0.012l0.061,0.014l0.06,0.014l0.061,0.017l0.059,0.017l0.059,0.019l0.058,0.021l0.058,0.022l0.057,0.023l0.056,0.025l0.055,0.026l0.055,0.027l0.054,0.028l0.053,0.03l0.052,0.031l0.052,0.032l0.051,0.034l0.049,0.034l0.049,0.036l0.048,0.037l0.048,0.038l0.046,0.039l0.045,0.04l0.044,0.041l0.044,0.042l0.042,0.044l0.041,0.044l0.04,0.045l0.039,0.046l0.038,0.048l0.037,0.048l0.036,0.049l0.034,0.049l0.034,0.051l0.032,0.052l0.031,0.052l0.03,0.053l0.028,0.054l0.027,0.055l0.026,0.055l0.025,0.056l0.023,0.057l0.022,0.058l0.021,0.058l0.019,0.059l0.017,0.059l0.017,0.061l0.014,0.06l0.014,0.061l0.012,0.062l0.01,0.062l0.009,0.063l0.007,0.063l0.006,0.064l0.004,0.064l0.002,0.065l0.001,0.065l0,3.96l-0.001,0.065l-0.002,0.065l-0.004,0.064l-0.006,0.064l-0.007,0.063l-0.009,0.063l-0.01,0.062l-0.012,0.062l-0.014,0.061l-0.014,0.06l-0.017,0.061l-0.017,0.059l-0.019,0.059l-0.021,0.058l-0.022,0.058l-0.023,0.057l-0.025,0.056l-0.026,0.055l-0.027,0.055l-0.028,0.054l-0.03,0.053l-0.031,0.052l-0.032,0.052l-0.034,0.051l-0.034,0.049l-0.036,0.049l-0.037,0.048l-0.038,0.048l-0.039,0.046l-0.04,0.045l-0.041,0.044l-0.042,0.044l-0.044,0.042l-0.044,0.041l-0.045,0.04l-0.046,0.039l-0.048,0.038l-0.048,0.037l-0.049,0.036l-0.049,0.034l-0.051,0.034l-0.052,0.032l-0.052,0.031l-0.053,0.03l-0.054,0.028l-0.055,0.027l-0.055,0.026l-0.056,0.025l-0.057,0.023l-0.058,0.022l-0.058,0.021l-0.059,0.019l-0.059,0.017l-0.061,0.017l-0.06,0.014l-0.061,0.014l-0.062,0.012l-0.062,0.01l-0.063,0.009l-0.063,0.007l-0.064,0.006l-0.064,0.004l-0.065,0.002l-0.065,0.001l-18.96,0l-0.065,-0.001l-0.065,-0.002l-0.064,-0.004l-0.064,-0.006l-0.063,-0.007l-0.063,-0.009l-0.062,-0.01l-0.062,-0.012l-0.061,-0.014l-0.06,-0.014l-0.061,-0.017l-0.059,-0.017l-0.059,-0.019l-0.058,-0.021l-0.058,-0.022l-0.057,-0.023l-0.056,-0.025l-0.055,-0.026l-0.055,-0.027l-0.054,-0.028l-0.053,-0.03l-0.052,-0.031l-0.052,-0.032l-0.051,-0.034l-0.049,-0.034l-0.049,-0.036l-0.048,-0.037l-0.048,-0.038l-0.046,-0.039l-0.045,-0.04l-0.044,-0.041l-0.044,-0.042l-0.042,-0.044l-0.041,-0.044l-0.04,-0.045l-0.039,-0.046l-0.038,-0.048l-0.037,-0.048l-0.036,-0.049l-0.034,-0.049l-0.034,-0.051l-0.032,-0.052l-0.031,-0.052l-0.03,-0.053l-0.028,-0.054l-0.027,-0.055l-0.026,-0.055l-0.025,-0.056l-0.023,-0.057l-0.022,-0.058l-0.021,-0.058l-0.019,-0.059l-0.017,-0.059l-0.017,-0.061l-0.014,-0.06l-0.014,-0.061l-0.012,-0.062l-0.01,-0.062l-0.009,-0.063l-0.007,-0.063l-0.006,-0.064l-0.004,-0.064l-0.002,-0.065l-0.001,-0.065l0,-3.96l0.001,-0.065l0.002,-0.065l0.004,-0.064l0.006,-0.064l0.007,-0.063l0.009,-0.063l0.01,-0.062l0.012,-0.062l0.014,-0.061l0.014,-0.06l0.017,-0.061l0.017,-0.059l0.019,-0.059l0.021,-0.058l0.022,-0.058l0.023,-0.057l0.025,-0.056l0.026,-0.055l0.027,-0.055l0.028,-0.054l0.03,-0.053l0.031,-0.052l0.032,-0.052l0.034,-0.051l0.034,-0.049l0.036,-0.049l0.037,-0.048l0.038,-0.048l0.039,-0.046l0.04,-0.045l0.041,-0.044l0.042,-0.044l0.044,-0.042l0.044,-0.041l0.045,-0.04l0.046,-0.039l0.048,-0.038l0.048,-0.037l0.049,-0.036l0.049,-0.034l0.051,-0.034l0.052,-0.032l0.052,-0.031l0.053,-0.03l0.054,-0.028l0.055,-0.027l0.055,-0.026l0.056,-0.025l0.057,-0.023l0.058,-0.022l0.058,-0.021l0.059,-0.019l0.059,-0.017l0.061,-0.017l0.06,-0.014l0.061,-0.014l0.062,-0.012l0.062,-0.01l0.063,-0.009l0.063,-0.007l0.064,-0.006l0.064,-0.004l0.065,-0.002l0.065,-0.001l18.96,0l0.065,0.001Zm-19.013,1.874l-0.029,0l-0.018,0.001l-0.016,0.001l-0.017,0.002l-0.016,0.001l-0.016,0.003l-0.016,0.002l-0.015,0.003l-0.016,0.004l-0.015,0.003l-0.015,0.004l-0.015,0.005l-0.014,0.005l-0.015,0.005l-0.014,0.005l-0.015,0.006l-0.014,0.006l-0.014,0.007l-0.014,0.007l-0.013,0.007l-0.014,0.007l-0.013,0.008l-0.014,0.009l-0.013,0.008l-0.012,0.009l-0.013,0.009l-0.013,0.01l-0.012,0.01l-0.012,0.01l-0.012,0.011l-0.011,0.01l-0.012,0.011l-0.011,0.012l-0.01,0.011l-0.011,0.012l-0.01,0.012l-0.01,0.012l-0.01,0.013l-0.009,0.013l-0.009,0.012l-0.008,0.013l-0.009,0.014l-0.008,0.013l-0.007,0.014l-0.007,0.013l-0.007,0.014l-0.007,0.014l-0.006,0.014l-0.006,0.015l-0.005,0.014l-0.005,0.015l-0.005,0.014l-0.005,0.015l-0.004,0.015l-0.003,0.015l-0.004,0.016l-0.003,0.015l-0.002,0.016l-0.003,0.016l-0.001,0.016l-0.002,0.017l-0.001,0.016l-0.001,0.018l0,0.029l0,3.936l0,0.029l0.001,0.018l0.001,0.016l0.002,0.017l0.001,0.016l0.003,0.016l0.002,0.016l0.003,0.015l0.004,0.016l0.003,0.015l0.004,0.015l0.005,0.015l0.005,0.014l0.005,0.015l0.005,0.014l0.006,0.015l0.006,0.014l0.007,0.014l0.007,0.014l0.007,0.013l0.007,0.014l0.008,0.013l0.009,0.014l0.008,0.013l0.009,0.012l0.009,0.013l0.01,0.013l0.01,0.012l0.01,0.012l0.011,0.012l0.01,0.011l0.011,0.012l0.012,0.011l0.011,0.01l0.012,0.011l0.012,0.01l0.012,0.01l0.013,0.01l0.013,0.009l0.012,0.009l0.013,0.008l0.014,0.009l0.013,0.008l0.014,0.007l0.013,0.007l0.014,0.007l0.014,0.007l0.014,0.006l0.015,0.006l0.014,0.005l0.015,0.005l0.014,0.005l0.015,0.005l0.015,0.004l0.015,0.003l0.016,0.004l0.015,0.003l0.016,0.002l0.016,0.003l0.016,0.001l0.017,0.002l0.016,0.001l0.018,0.001l0.029,0l18.936,0l0.029,0l0.018,-0.001l0.016,-0.001l0.017,-0.002l0.016,-0.001l0.016,-0.003l0.016,-0.002l0.015,-0.003l0.016,-0.004l0.015,-0.003l0.015,-0.004l0.015,-0.005l0.014,-0.005l0.015,-0.005l0.014,-0.005l0.015,-0.006l0.014,-0.006l0.014,-0.007l0.014,-0.007l0.013,-0.007l0.014,-0.007l0.013,-0.008l0.014,-0.009l0.013,-0.008l0.012,-0.009l0.013,-0.009l0.013,-0.01l0.012,-0.01l0.012,-0.01l0.012,-0.011l0.011,-0.01l0.012,-0.011l0.011,-0.012l0.01,-0.011l0.011,-0.012l0.01,-0.012l0.01,-0.012l0.01,-0.013l0.009,-0.013l0.009,-0.012l0.008,-0.013l0.009,-0.014l0.008,-0.013l0.007,-0.014l0.007,-0.013l0.007,-0.014l0.007,-0.014l0.006,-0.014l0.006,-0.015l0.005,-0.014l0.005,-0.015l0.005,-0.014l0.005,-0.015l0.004,-0.015l0.003,-0.015l0.004,-0.016l0.003,-0.015l0.002,-0.016l0.003,-0.016l0.001,-0.016l0.002,-0.017l0.001,-0.016l0.001,-0.018l0,-0.029l0,-3.936l0,-0.029l-0.001,-0.018l-0.001,-0.016l-0.002,-0.017l-0.001,-0.016l-0.003,-0.016l-0.002,-0.016l-0.003,-0.015l-0.004,-0.016l-0.003,-0.015l-0.004,-0.015l-0.005,-0.015l-0.005,-0.014l-0.005,-0.015l-0.005,-0.014l-0.006,-0.015l-0.006,-0.014l-0.007,-0.014l-0.007,-0.014l-0.007,-0.013l-0.007,-0.014l-0.008,-0.013l-0.009,-0.014l-0.008,-0.013l-0.009,-0.012l-0.009,-0.013l-0.01,-0.013l-0.01,-0.012l-0.01,-0.012l-0.011,-0.012l-0.01,-0.011l-0.011,-0.012l-0.012,-0.011l-0.011,-0.01l-0.012,-0.011l-0.012,-0.01l-0.012,-0.01l-0.013,-0.01l-0.013,-0.009l-0.012,-0.009l-0.013,-0.008l-0.014,-0.009l-0.013,-0.008l-0.014,-0.007l-0.013,-0.007l-0.014,-0.007l-0.014,-0.007l-0.014,-0.006l-0.015,-0.006l-0.014,-0.005l-0.015,-0.005l-0.014,-0.005l-0.015,-0.005l-0.015,-0.004l-0.015,-0.003l-0.016,-0.004l-0.015,-0.003l-0.016,-0.002l-0.016,-0.003l-0.016,-0.001l-0.017,-0.002l-0.016,-0.001l-0.018,-0.001l-0.029,0l-18.936,0Z" style="fill:#575756;"/><path id="gray" d="M17.693,0.001l0.067,0.002l0.067,0.005l0.066,0.006l0.066,0.007l0.066,0.009l0.064,0.011l0.065,0.012l0.064,0.014l0.063,0.016l0.062,0.017l0.062,0.018l0.062,0.02l0.06,0.021l0.06,0.023l0.059,0.024l0.059,0.026l0.058,0.027l0.057,0.028l0.056,0.03l0.055,0.031l0.055,0.032l0.053,0.034l0.053,0.035l0.052,0.036l0.051,0.037l0.05,0.038l0.049,0.04l0.048,0.04l0.048,0.042l0.046,0.043l0.045,0.044l0.044,0.045l0.043,0.046l0.042,0.048l0.04,0.048l0.04,0.049l0.038,0.05l0.037,0.051l0.036,0.052l0.035,0.053l0.034,0.053l0.032,0.055l0.031,0.055l0.03,0.056l0.028,0.057l0.027,0.058l0.026,0.059l0.024,0.059l0.023,0.06l0.021,0.06l0.02,0.062l0.018,0.062l0.017,0.062l0.016,0.063l0.014,0.064l0.012,0.065l0.011,0.064l0.009,0.066l0.007,0.066l0.006,0.066l0.005,0.067l0.002,0.067l0.001,0.068l0,18.75l-0.001,0.068l-0.002,0.067l-0.005,0.067l-0.006,0.066l-0.007,0.066l-0.009,0.066l-0.011,0.064l-0.012,0.065l-0.014,0.064l-0.016,0.063l-0.017,0.062l-0.018,0.062l-0.02,0.062l-0.021,0.06l-0.023,0.06l-0.024,0.059l-0.026,0.059l-0.027,0.058l-0.028,0.057l-0.03,0.056l-0.031,0.055l-0.032,0.055l-0.034,0.053l-0.035,0.053l-0.036,0.052l-0.037,0.051l-0.038,0.05l-0.04,0.049l-0.04,0.048l-0.042,0.048l-0.043,0.046l-0.044,0.045l-0.045,0.044l-0.046,0.043l-0.048,0.042l-0.048,0.04l-0.049,0.04l-0.05,0.038l-0.051,0.037l-0.052,0.036l-0.053,0.035l-0.053,0.034l-0.055,0.032l-0.055,0.031l-0.056,0.03l-0.057,0.028l-0.058,0.027l-0.059,0.026l-0.059,0.024l-0.06,0.023l-0.06,0.021l-0.062,0.02l-0.062,0.018l-0.062,0.017l-0.063,0.016l-0.064,0.014l-0.065,0.012l-0.064,0.011l-0.066,0.009l-0.066,0.007l-0.066,0.006l-0.067,0.005l-0.067,0.002l-0.068,0.001l-4.125,0l-0.068,-0.001l-0.067,-0.002l-0.067,-0.005l-0.066,-0.006l-0.066,-0.007l-0.066,-0.009l-0.064,-0.011l-0.065,-0.012l-0.064,-0.014l-0.063,-0.016l-0.062,-0.017l-0.062,-0.018l-0.062,-0.02l-0.06,-0.021l-0.06,-0.023l-0.059,-0.024l-0.059,-0.026l-0.058,-0.027l-0.057,-0.028l-0.056,-0.03l-0.055,-0.031l-0.055,-0.032l-0.053,-0.034l-0.053,-0.035l-0.052,-0.036l-0.051,-0.037l-0.05,-0.038l-0.049,-0.04l-0.048,-0.04l-0.048,-0.042l-0.046,-0.043l-0.045,-0.044l-0.044,-0.045l-0.043,-0.046l-0.042,-0.048l-0.04,-0.048l-0.04,-0.049l-0.038,-0.05l-0.037,-0.051l-0.036,-0.052l-0.035,-0.053l-0.034,-0.053l-0.032,-0.055l-0.031,-0.055l-0.03,-0.056l-0.028,-0.057l-0.027,-0.058l-0.026,-0.059l-0.024,-0.059l-0.023,-0.06l-0.021,-0.06l-0.02,-0.062l-0.018,-0.062l-0.017,-0.062l-0.016,-0.063l-0.014,-0.064l-0.012,-0.065l-0.011,-0.064l-0.009,-0.066l-0.007,-0.066l-0.006,-0.066l-0.005,-0.067l-0.002,-0.067l-0.001,-0.068l0,-18.75l0.001,-0.068l0.002,-0.067l0.005,-0.067l0.006,-0.066l0.007,-0.066l0.009,-0.066l0.011,-0.064l0.012,-0.065l0.014,-0.064l0.016,-0.063l0.017,-0.062l0.018,-0.062l0.02,-0.062l0.021,-0.06l0.023,-0.06l0.024,-0.059l0.026,-0.059l0.027,-0.058l0.028,-0.057l0.03,-0.056l0.031,-0.055l0.032,-0.055l0.034,-0.053l0.035,-0.053l0.036,-0.052l0.037,-0.051l0.038,-0.05l0.04,-0.049l0.04,-0.048l0.042,-0.048l0.043,-0.046l0.044,-0.045l0.045,-0.044l0.046,-0.043l0.048,-0.042l0.048,-0.04l0.049,-0.04l0.05,-0.038l0.051,-0.037l0.052,-0.036l0.053,-0.035l0.053,-0.034l0.055,-0.032l0.055,-0.031l0.056,-0.03l0.057,-0.028l0.058,-0.027l0.059,-0.026l0.059,-0.024l0.06,-0.023l0.06,-0.021l0.062,-0.02l0.062,-0.018l0.062,-0.017l0.063,-0.016l0.064,-0.014l0.065,-0.012l0.064,-0.011l0.066,-0.009l0.066,-0.007l0.066,-0.006l0.067,-0.005l0.067,-0.002l0.068,-0.001l4.125,0l0.068,0.001Zm-4.181,1.874l-0.032,0l-0.02,0.001l-0.019,0.001l-0.02,0.002l-0.018,0.002l-0.019,0.003l-0.018,0.003l-0.018,0.003l-0.018,0.004l-0.018,0.005l-0.018,0.004l-0.017,0.005l-0.017,0.006l-0.017,0.006l-0.017,0.006l-0.016,0.007l-0.017,0.007l-0.016,0.008l-0.016,0.008l-0.016,0.009l-0.016,0.008l-0.016,0.01l-0.015,0.009l-0.015,0.01l-0.015,0.011l-0.015,0.01l-0.014,0.011l-0.015,0.012l-0.014,0.012l-0.013,0.012l-0.014,0.012l-0.013,0.013l-0.013,0.013l-0.012,0.014l-0.012,0.013l-0.012,0.014l-0.012,0.015l-0.011,0.014l-0.01,0.015l-0.011,0.015l-0.01,0.015l-0.009,0.015l-0.01,0.016l-0.008,0.016l-0.009,0.016l-0.008,0.016l-0.008,0.016l-0.007,0.017l-0.007,0.016l-0.006,0.017l-0.006,0.017l-0.005,0.017l-0.006,0.017l-0.004,0.018l-0.005,0.018l-0.004,0.018l-0.003,0.018l-0.003,0.018l-0.003,0.019l-0.002,0.018l-0.002,0.02l-0.001,0.019l-0.001,0.02l0,0.032l0,18.726l0,0.032l0.001,0.02l0.001,0.019l0.002,0.02l0.002,0.018l0.003,0.019l0.003,0.018l0.003,0.018l0.004,0.018l0.005,0.018l0.004,0.018l0.006,0.017l0.005,0.017l0.006,0.017l0.006,0.017l0.007,0.016l0.007,0.017l0.008,0.016l0.008,0.016l0.009,0.016l0.008,0.016l0.01,0.016l0.009,0.015l0.01,0.015l0.011,0.015l0.01,0.015l0.011,0.014l0.012,0.015l0.012,0.014l0.012,0.013l0.012,0.014l0.013,0.013l0.013,0.013l0.014,0.012l0.013,0.012l0.014,0.012l0.015,0.012l0.014,0.011l0.015,0.01l0.015,0.011l0.015,0.01l0.015,0.009l0.016,0.01l0.016,0.008l0.016,0.009l0.016,0.008l0.016,0.008l0.017,0.007l0.016,0.007l0.017,0.006l0.017,0.006l0.017,0.006l0.017,0.005l0.018,0.004l0.018,0.005l0.018,0.004l0.018,0.003l0.018,0.003l0.019,0.003l0.018,0.002l0.02,0.002l0.019,0.001l0.02,0.001l0.032,0l4.101,0l0.032,0l0.02,-0.001l0.019,-0.001l0.02,-0.002l0.018,-0.002l0.019,-0.003l0.018,-0.003l0.018,-0.003l0.018,-0.004l0.018,-0.005l0.018,-0.004l0.017,-0.005l0.017,-0.006l0.017,-0.006l0.017,-0.006l0.016,-0.007l0.017,-0.007l0.016,-0.008l0.016,-0.008l0.016,-0.009l0.016,-0.008l0.016,-0.01l0.015,-0.009l0.015,-0.01l0.015,-0.011l0.015,-0.01l0.014,-0.011l0.015,-0.012l0.014,-0.012l0.013,-0.012l0.014,-0.012l0.013,-0.013l0.013,-0.013l0.012,-0.014l0.012,-0.013l0.012,-0.014l0.012,-0.015l0.011,-0.014l0.01,-0.015l0.011,-0.015l0.01,-0.015l0.009,-0.015l0.01,-0.016l0.008,-0.016l0.009,-0.016l0.008,-0.016l0.008,-0.016l0.007,-0.017l0.007,-0.016l0.006,-0.017l0.006,-0.017l0.006,-0.017l0.005,-0.017l0.004,-0.018l0.005,-0.018l0.004,-0.018l0.003,-0.018l0.003,-0.018l0.003,-0.019l0.002,-0.018l0.002,-0.02l0.001,-0.019l0.001,-0.02l0,-0.032l0,-18.726l0,-0.032l-0.001,-0.02l-0.001,-0.019l-0.002,-0.02l-0.002,-0.018l-0.003,-0.019l-0.003,-0.018l-0.003,-0.018l-0.004,-0.018l-0.005,-0.018l-0.004,-0.018l-0.005,-0.017l-0.006,-0.017l-0.006,-0.017l-0.006,-0.017l-0.007,-0.016l-0.007,-0.017l-0.008,-0.016l-0.008,-0.016l-0.009,-0.016l-0.008,-0.016l-0.01,-0.016l-0.009,-0.015l-0.01,-0.015l-0.011,-0.015l-0.01,-0.015l-0.011,-0.014l-0.012,-0.015l-0.012,-0.014l-0.012,-0.013l-0.012,-0.014l-0.013,-0.013l-0.013,-0.013l-0.014,-0.012l-0.013,-0.012l-0.014,-0.012l-0.015,-0.012l-0.014,-0.011l-0.015,-0.01l-0.015,-0.011l-0.015,-0.01l-0.015,-0.009l-0.016,-0.01l-0.016,-0.008l-0.016,-0.009l-0.016,-0.008l-0.016,-0.008l-0.017,-0.007l-0.016,-0.007l-0.017,-0.006l-0.017,-0.006l-0.017,-0.006l-0.017,-0.005l-0.018,-0.004l-0.018,-0.005l-0.018,-0.004l-0.018,-0.003l-0.018,-0.003l-0.019,-0.003l-0.018,-0.002l-0.02,-0.002l-0.019,-0.001l-0.02,-0.001l-0.032,0l-4.101,0Z" style="fill:#9c9b9b;"/><path id="red" d="M14.016,7.501l0.065,0.002l0.065,0.004l0.065,0.006l0.064,0.008l0.063,0.008l0.063,0.011l0.063,0.012l0.062,0.013l0.061,0.015l0.061,0.017l0.06,0.018l0.059,0.019l0.059,0.021l0.059,0.022l0.057,0.024l0.057,0.024l0.056,0.027l0.055,0.027l0.055,0.029l0.054,0.03l0.053,0.031l0.052,0.033l0.051,0.034l0.051,0.035l0.049,0.036l0.049,0.037l0.048,0.039l0.046,0.039l0.046,0.041l0.045,0.041l0.044,0.043l0.043,0.044l0.041,0.045l0.041,0.046l0.039,0.046l0.039,0.048l0.037,0.049l0.036,0.049l0.035,0.051l0.034,0.051l0.033,0.052l0.031,0.053l0.03,0.054l0.029,0.055l0.027,0.055l0.027,0.056l0.024,0.057l0.024,0.057l0.022,0.059l0.021,0.059l0.019,0.059l0.018,0.06l0.017,0.061l0.015,0.061l0.013,0.062l0.012,0.063l0.011,0.063l0.008,0.063l0.008,0.064l0.006,0.065l0.004,0.065l0.002,0.065l0.001,0.066l0,7.65l-0.001,0.066l-0.002,0.065l-0.004,0.065l-0.006,0.065l-0.008,0.064l-0.008,0.063l-0.011,0.063l-0.012,0.063l-0.013,0.062l-0.015,0.061l-0.017,0.061l-0.018,0.06l-0.019,0.059l-0.021,0.059l-0.022,0.059l-0.024,0.057l-0.024,0.057l-0.027,0.056l-0.027,0.055l-0.029,0.055l-0.03,0.054l-0.031,0.053l-0.033,0.052l-0.034,0.051l-0.035,0.051l-0.036,0.049l-0.037,0.049l-0.039,0.048l-0.039,0.046l-0.041,0.046l-0.041,0.045l-0.043,0.044l-0.044,0.043l-0.045,0.041l-0.046,0.041l-0.046,0.039l-0.048,0.039l-0.049,0.037l-0.049,0.036l-0.051,0.035l-0.051,0.034l-0.052,0.033l-0.053,0.031l-0.054,0.03l-0.055,0.029l-0.055,0.027l-0.056,0.027l-0.057,0.024l-0.057,0.024l-0.059,0.022l-0.059,0.021l-0.059,0.019l-0.06,0.018l-0.061,0.017l-0.061,0.015l-0.062,0.013l-0.063,0.012l-0.063,0.011l-0.063,0.008l-0.064,0.008l-0.065,0.006l-0.065,0.004l-0.065,0.002l-0.066,0.001l-7.65,0l-0.066,-0.001l-0.065,-0.002l-0.065,-0.004l-0.065,-0.006l-0.064,-0.008l-0.063,-0.008l-0.063,-0.011l-0.063,-0.012l-0.062,-0.013l-0.061,-0.015l-0.061,-0.017l-0.06,-0.018l-0.059,-0.019l-0.059,-0.021l-0.059,-0.022l-0.057,-0.024l-0.057,-0.024l-0.056,-0.027l-0.055,-0.027l-0.055,-0.029l-0.054,-0.03l-0.053,-0.031l-0.052,-0.033l-0.051,-0.034l-0.051,-0.035l-0.049,-0.036l-0.049,-0.037l-0.048,-0.039l-0.046,-0.039l-0.046,-0.041l-0.045,-0.041l-0.044,-0.043l-0.043,-0.044l-0.041,-0.045l-0.041,-0.046l-0.039,-0.046l-0.039,-0.048l-0.037,-0.049l-0.036,-0.049l-0.035,-0.051l-0.034,-0.051l-0.033,-0.052l-0.031,-0.053l-0.03,-0.054l-0.029,-0.055l-0.027,-0.055l-0.027,-0.056l-0.024,-0.057l-0.024,-0.057l-0.022,-0.059l-0.021,-0.059l-0.019,-0.059l-0.018,-0.06l-0.017,-0.061l-0.015,-0.061l-0.013,-0.062l-0.012,-0.063l-0.011,-0.063l-0.008,-0.063l-0.008,-0.064l-0.006,-0.065l-0.004,-0.065l-0.002,-0.065l-0.001,-0.066l0,-7.65l0.001,-0.066l0.002,-0.065l0.004,-0.065l0.006,-0.065l0.008,-0.064l0.008,-0.063l0.011,-0.063l0.012,-0.063l0.013,-0.062l0.015,-0.061l0.017,-0.061l0.018,-0.06l0.019,-0.059l0.021,-0.059l0.022,-0.059l0.024,-0.057l0.024,-0.057l0.027,-0.056l0.027,-0.055l0.029,-0.055l0.03,-0.054l0.031,-0.053l0.033,-0.052l0.034,-0.051l0.035,-0.051l0.036,-0.049l0.037,-0.049l0.039,-0.048l0.039,-0.046l0.041,-0.046l0.041,-0.045l0.043,-0.044l0.044,-0.043l0.045,-0.041l0.046,-0.041l0.046,-0.039l0.048,-0.039l0.049,-0.037l0.049,-0.036l0.051,-0.035l0.051,-0.034l0.052,-0.033l0.053,-0.031l0.054,-0.03l0.055,-0.029l0.055,-0.027l0.056,-0.027l0.057,-0.024l0.057,-0.024l0.059,-0.022l0.059,-0.021l0.059,-0.019l0.06,-0.018l0.061,-0.017l0.061,-0.015l0.062,-0.013l0.063,-0.012l0.063,-0.011l0.063,-0.008l0.064,-0.008l0.065,-0.006l0.065,-0.004l0.065,-0.002l0.066,-0.001l7.65,0l0.066,0.001Zm-7.704,1.874l-0.03,0l-0.018,0.001l-0.018,0.001l-0.017,0.002l-0.017,0.002l-0.017,0.002l-0.016,0.003l-0.016,0.003l-0.016,0.003l-0.016,0.004l-0.016,0.004l-0.016,0.005l-0.015,0.005l-0.015,0.006l-0.015,0.005l-0.015,0.006l-0.015,0.007l-0.015,0.007l-0.014,0.007l-0.015,0.007l-0.014,0.008l-0.014,0.009l-0.014,0.008l-0.013,0.009l-0.014,0.01l-0.013,0.009l-0.013,0.01l-0.013,0.011l-0.013,0.01l-0.012,0.011l-0.012,0.012l-0.012,0.011l-0.011,0.012l-0.012,0.012l-0.011,0.012l-0.01,0.013l-0.011,0.013l-0.01,0.013l-0.009,0.013l-0.01,0.014l-0.009,0.013l-0.008,0.014l-0.009,0.014l-0.008,0.014l-0.007,0.015l-0.007,0.014l-0.007,0.015l-0.007,0.015l-0.006,0.015l-0.005,0.015l-0.006,0.015l-0.005,0.015l-0.005,0.016l-0.004,0.016l-0.004,0.016l-0.003,0.016l-0.003,0.016l-0.003,0.016l-0.002,0.017l-0.002,0.017l-0.002,0.017l-0.001,0.018l-0.001,0.018l0,0.03l0,7.626l0,0.03l0.001,0.018l0.001,0.018l0.002,0.017l0.002,0.017l0.002,0.017l0.003,0.016l0.003,0.016l0.003,0.016l0.004,0.016l0.004,0.016l0.005,0.016l0.005,0.015l0.006,0.015l0.005,0.015l0.006,0.015l0.007,0.015l0.007,0.015l0.007,0.014l0.007,0.015l0.008,0.014l0.009,0.014l0.008,0.014l0.009,0.013l0.01,0.014l0.009,0.013l0.01,0.013l0.011,0.013l0.01,0.013l0.011,0.012l0.012,0.012l0.011,0.012l0.012,0.011l0.012,0.012l0.012,0.011l0.013,0.01l0.013,0.011l0.013,0.01l0.013,0.009l0.014,0.01l0.013,0.009l0.014,0.008l0.014,0.009l0.014,0.008l0.015,0.007l0.014,0.007l0.015,0.007l0.015,0.007l0.015,0.006l0.015,0.005l0.015,0.006l0.015,0.005l0.016,0.005l0.016,0.004l0.016,0.004l0.016,0.003l0.016,0.003l0.016,0.003l0.017,0.002l0.017,0.002l0.017,0.002l0.018,0.001l0.018,0.001l0.03,0l7.626,0l0.03,0l0.018,-0.001l0.018,-0.001l0.017,-0.002l0.017,-0.002l0.017,-0.002l0.016,-0.003l0.016,-0.003l0.016,-0.003l0.016,-0.004l0.016,-0.004l0.016,-0.005l0.015,-0.005l0.015,-0.006l0.015,-0.005l0.015,-0.006l0.015,-0.007l0.015,-0.007l0.014,-0.007l0.015,-0.007l0.014,-0.008l0.014,-0.009l0.014,-0.008l0.013,-0.009l0.014,-0.01l0.013,-0.009l0.013,-0.01l0.013,-0.011l0.013,-0.01l0.012,-0.011l0.012,-0.012l0.012,-0.011l0.011,-0.012l0.012,-0.012l0.011,-0.012l0.01,-0.013l0.011,-0.013l0.01,-0.013l0.009,-0.013l0.01,-0.014l0.009,-0.013l0.008,-0.014l0.009,-0.014l0.008,-0.014l0.007,-0.015l0.007,-0.014l0.007,-0.015l0.007,-0.015l0.006,-0.015l0.005,-0.015l0.006,-0.015l0.005,-0.015l0.005,-0.016l0.004,-0.016l0.004,-0.016l0.003,-0.016l0.003,-0.016l0.003,-0.016l0.002,-0.017l0.002,-0.017l0.002,-0.017l0.001,-0.018l0.001,-0.018l0,-0.03l0,-7.626l0,-0.03l-0.001,-0.018l-0.001,-0.018l-0.002,-0.017l-0.002,-0.017l-0.002,-0.017l-0.003,-0.016l-0.003,-0.016l-0.003,-0.016l-0.004,-0.016l-0.004,-0.016l-0.005,-0.016l-0.005,-0.015l-0.006,-0.015l-0.005,-0.015l-0.006,-0.015l-0.007,-0.015l-0.007,-0.015l-0.007,-0.014l-0.007,-0.015l-0.008,-0.014l-0.009,-0.014l-0.008,-0.014l-0.009,-0.013l-0.01,-0.014l-0.009,-0.013l-0.01,-0.013l-0.011,-0.013l-0.01,-0.013l-0.011,-0.012l-0.012,-0.012l-0.011,-0.012l-0.012,-0.011l-0.012,-0.012l-0.012,-0.011l-0.013,-0.01l-0.013,-0.011l-0.013,-0.01l-0.013,-0.009l-0.014,-0.01l-0.013,-0.009l-0.014,-0.008l-0.014,-0.009l-0.014,-0.008l-0.015,-0.007l-0.014,-0.007l-0.015,-0.007l-0.015,-0.007l-0.015,-0.006l-0.015,-0.005l-0.015,-0.006l-0.015,-0.005l-0.016,-0.005l-0.016,-0.004l-0.016,-0.004l-0.016,-0.003l-0.016,-0.003l-0.016,-0.003l-0.017,-0.002l-0.017,-0.002l-0.017,-0.002l-0.018,-0.001l-0.018,-0.001l-0.03,0l-7.626,0Z" style="fill:#e32213;"/></svg>