<?xml version="1.0" encoding="utf-8"?>
<!-- Generator: Adobe Illustrator 19.2.1, SVG Export Plug-In . SVG Version: 6.00 Build 0)  -->
<svg version="1.1" id="Layer_1" xmlns="http://www.w3.org/2000/svg" xmlns:xlink="http://www.w3.org/1999/xlink" x="0px" y="0px"
	 width="195px" height="33px" viewBox="0 0 195 33" style="enable-background:new 0 0 195 33;" xml:space="preserve">
<style type="text/css">
	.st0{clip-path:url(#SVGID_2_);}
	.st1{fill:#D30A19;}
	.st2{fill:#FFFFFF;}
	.st3{fill:#163B78;}
	.st4{fill:#575756;}
	.st5{fill:#9C9B9B;}
	.st6{fill:#1D1D1B;}
	.st7{fill:#E32213;}
	.st8{fill-rule:evenodd;clip-rule:evenodd;fill:#231F20;}
	.st9{clip-path:url(#SVGID_4_);}
	.st10{clip-path:url(#SVGID_6_);}
	.st11{fill:#DE1427;}
	.st12{clip-path:url(#SVGID_8_);}
	.st13{fill:#001982;}
	.st14{fill:#DE2020;}
	.st15{fill:#1384C7;}
	.st16{fill:#78CBEF;}
	.st17{fill:#231F20;}
	.st18{fill:#E32119;}
	.st19{fill-rule:evenodd;clip-rule:evenodd;fill:#E32119;}
	.st20{fill:#BDBFBF;}
	.st21{fill:#58595B;}
	.st22{fill:#929497;}
	.st23{fill:#AFD136;}
	.st24{fill-rule:evenodd;clip-rule:evenodd;}
	.st25{fill:#0FB4CB;}
	.st26{fill:#FBE42E;}
	.st27{fill:#FFE500;}
	.st28{fill:#EC1C24;}
	.st29{fill:#58585A;}
</style>
<g>
	<path class="st4" d="M28.9,5.4H3.4C1.5,5.4,0,6.9,0,8.9v5.4c0,1.9,1.5,3.4,3.4,3.4h25.6c1.9,0,3.4-1.5,3.4-3.4V8.9
		C32.3,6.9,30.8,5.4,28.9,5.4L28.9,5.4z M28.9,7.9c0.5,0,0.9,0.4,0.9,1v5.4c0,0.5-0.4,1-0.9,1H3.4c-0.5,0-0.9-0.4-0.9-1V8.9
		c0-0.5,0.4-1,0.9-1H28.9z"/>
	<path class="st5" d="M23.9,0.3h-5.5c-1.9,0-3.5,1.5-3.5,3.4v25.6c0,1.9,1.6,3.4,3.5,3.4h5.5c1.9,0,3.5-1.5,3.5-3.4V3.7
		C27.4,1.8,25.8,0.3,23.9,0.3L23.9,0.3z M23.9,2.8c0.5,0,1,0.4,1,0.9v25.6c0,0.5-0.4,0.9-1,0.9h-5.5c-0.5,0-1-0.4-1-0.9V3.7
		c0-0.5,0.4-0.9,1-0.9H23.9z"/>
	<path class="st6" d="M182.1,24.1V9.4h4.9c0.6,0,1.1,0.1,1.6,0.3c0.5,0.2,0.9,0.6,1.2,1.2c0.3,0.5,0.6,1.3,0.7,2.3
		c0.2,1,0.3,2.2,0.3,3.7c0,1.5-0.1,2.8-0.4,3.9c-0.3,1.1-0.7,1.9-1.2,2.5c-0.6,0.6-1.3,0.9-2.2,0.9H182.1L182.1,24.1z M177.8,27.9
		h9.5c1.4,0,2.5-0.3,3.5-0.8c1-0.5,1.8-1.3,2.4-2.3c0.6-1,1.1-2.1,1.4-3.5c0.3-1.3,0.4-2.8,0.4-4.5c0-1.1-0.1-2.2-0.2-3.3
		c-0.1-1.1-0.4-2.1-0.7-3.1c-0.3-1-0.8-1.8-1.4-2.5c-0.6-0.7-1.3-1.3-2.2-1.7c-0.9-0.4-2-0.6-3.3-0.6h-9.5V27.9z"/>
	<path class="st6" d="M163.3,15.7V9.4h5.1c0.5,0,0.8,0.1,1.2,0.3c0.3,0.2,0.6,0.5,0.8,1c0.2,0.5,0.3,1.1,0.3,1.9
		c0,0.7,0,1.2-0.1,1.6c-0.1,0.4-0.2,0.7-0.4,0.9c-0.2,0.2-0.4,0.4-0.7,0.4c-0.3,0.1-0.6,0.1-1,0.1H163.3L163.3,15.7z M159,27.9h4.3
		V19l3.7,0.4l3.7,8.4h4.8l-4.2-8.8c0.3-0.1,0.5-0.2,0.9-0.3c0.3-0.1,0.6-0.3,0.9-0.6c0.3-0.3,0.6-0.6,0.9-1.1
		c0.3-0.5,0.5-1.1,0.6-1.8c0.2-0.7,0.2-1.7,0.2-2.8c0-1.3-0.2-2.4-0.5-3.3c-0.3-0.9-0.7-1.6-1.3-2.1c-0.5-0.5-1.2-0.9-1.9-1.1
		c-0.7-0.2-1.6-0.3-2.4-0.3H159V27.9z"/>
	<path class="st6" d="M144.6,19.2l2.7-8l2.5,8H144.6L144.6,19.2z M137.3,27.9h4.6l1.6-4.9h7.3l1.6,4.9h4.5l-7.2-22.3h-4.8
		L137.3,27.9z"/>
	<path class="st6" d="M123.2,16.9c0-1.4,0.1-2.6,0.2-3.5c0.1-0.9,0.3-1.7,0.5-2.2c0.2-0.5,0.5-0.9,0.9-1.2c0.4-0.3,0.8-0.4,1.3-0.5
		c0.5-0.1,1.1-0.1,1.7-0.1c0.7,0,1.3,0,1.8,0.1c0.5,0.1,1,0.3,1.3,0.5c0.4,0.3,0.7,0.7,0.9,1.2c0.2,0.5,0.4,1.3,0.5,2.2
		c0.1,0.9,0.2,2.1,0.2,3.4c0,1.2,0,2.2-0.1,3c-0.1,0.8-0.3,1.5-0.5,2.1c-0.2,0.5-0.5,1-0.9,1.3c-0.4,0.3-0.8,0.5-1.3,0.6
		c-0.5,0.1-1.2,0.2-1.9,0.2c-0.8,0-1.4-0.1-1.9-0.2c-0.5-0.1-1-0.3-1.3-0.6c-0.4-0.3-0.6-0.7-0.8-1.2c-0.2-0.5-0.3-1.2-0.4-2.1
		C123.3,19.2,123.2,18.1,123.2,16.9L123.2,16.9z M119,16.9c0,1.7,0.1,3.1,0.3,4.3c0.2,1.2,0.5,2.2,0.8,3c0.4,0.8,0.8,1.5,1.3,2
		c0.5,0.5,1.1,0.9,1.8,1.1c0.7,0.3,1.4,0.4,2.2,0.5c0.8,0.1,1.7,0.1,2.6,0.1c0.9,0,1.8,0,2.6-0.1c0.8-0.1,1.5-0.3,2.2-0.6
		c0.7-0.3,1.3-0.7,1.8-1.2c0.5-0.5,1-1.2,1.3-2c0.4-0.8,0.6-1.8,0.8-3c0.2-1.2,0.3-2.6,0.3-4.2c0-1.7-0.1-3.2-0.3-4.5
		c-0.2-1.2-0.5-2.3-0.9-3.1c-0.4-0.8-0.8-1.5-1.3-2c-0.5-0.5-1.1-0.9-1.8-1.2c-0.7-0.3-1.4-0.4-2.2-0.5c-0.8-0.1-1.6-0.1-2.5-0.1
		c-0.9,0-1.7,0-2.4,0.1c-0.8,0.1-1.5,0.3-2.2,0.5c-0.7,0.3-1.3,0.6-1.8,1.2c-0.5,0.5-1,1.2-1.4,2c-0.4,0.8-0.7,1.9-0.9,3.1
		C119.1,13.7,119,15.2,119,16.9z"/>
	<path class="st6" d="M105.2,14.4V9.4h4.7c0.3,0,0.6,0,0.8,0.1c0.3,0.1,0.5,0.2,0.8,0.4c0.2,0.2,0.4,0.4,0.5,0.8
		c0.1,0.3,0.2,0.8,0.2,1.3c0,0.8-0.2,1.4-0.6,1.9c-0.4,0.4-1,0.7-1.8,0.7H105.2L105.2,14.4z M105.2,24.1V18h4.8
		c0.6,0,1.1,0.2,1.4,0.4c0.4,0.3,0.6,0.7,0.8,1.1c0.2,0.5,0.2,1,0.2,1.5c0,0.8-0.1,1.4-0.4,1.8c-0.2,0.4-0.5,0.7-0.9,0.9
		c-0.4,0.2-0.8,0.2-1.2,0.2H105.2L105.2,24.1z M100.9,27.9h9.3c1.6,0,2.8-0.3,3.8-0.8c1-0.5,1.7-1.3,2.1-2.2c0.5-1,0.7-2.2,0.7-3.5
		c0-0.9-0.2-1.8-0.5-2.5c-0.3-0.7-0.7-1.3-1.2-1.7c-0.5-0.4-1.1-0.7-1.7-0.8c0.5-0.1,1-0.3,1.4-0.6c0.4-0.3,0.7-0.7,0.9-1.1
		c0.2-0.4,0.4-0.9,0.5-1.4c0.1-0.5,0.2-1,0.2-1.5c0-0.8-0.1-1.6-0.3-2.3c-0.2-0.7-0.6-1.3-1.1-1.9c-0.5-0.5-1.1-1-1.9-1.3
		c-0.8-0.3-1.8-0.5-2.9-0.5h-9.2V27.9z"/>
	<path class="st6" d="M86.5,23.6c0,0.8,0.1,1.6,0.4,2.1c0.2,0.6,0.6,1,1,1.3c0.4,0.3,0.9,0.6,1.5,0.7c0.5,0.1,1.1,0.2,1.7,0.2h7.6
		V24h-6.1c-0.2,0-0.4,0-0.7,0c-0.2,0-0.4-0.1-0.6-0.2c-0.2-0.1-0.3-0.2-0.4-0.5c-0.1-0.2-0.2-0.5-0.2-0.9V5.6h-4.3V23.6z"/>
	<path class="st6" d="M72.4,23.6c0,0.8,0.1,1.6,0.4,2.1c0.2,0.6,0.6,1,1,1.3c0.4,0.3,0.9,0.6,1.5,0.7c0.5,0.1,1.1,0.2,1.7,0.2h7.6
		V24h-6.1c-0.2,0-0.4,0-0.7,0c-0.2,0-0.4-0.1-0.6-0.2c-0.2-0.1-0.3-0.2-0.4-0.5c-0.1-0.2-0.2-0.5-0.2-0.9V5.6h-4.3V23.6z"/>
	<rect x="64.4" y="5.6" class="st6" width="4.3" height="22.3"/>
	<path class="st6" d="M50,14.4V9.4h4.7c0.3,0,0.6,0,0.8,0.1c0.3,0.1,0.5,0.2,0.8,0.4c0.2,0.2,0.4,0.4,0.5,0.8
		c0.1,0.3,0.2,0.8,0.2,1.3c0,0.8-0.2,1.4-0.6,1.9c-0.4,0.4-1,0.7-1.8,0.7H50L50,14.4z M50,24.1V18h4.8c0.6,0,1.1,0.2,1.4,0.4
		c0.4,0.3,0.6,0.7,0.8,1.1c0.2,0.5,0.2,1,0.2,1.5c0,0.8-0.1,1.4-0.4,1.8c-0.2,0.4-0.5,0.7-0.9,0.9c-0.4,0.2-0.8,0.2-1.2,0.2H50
		L50,24.1z M45.7,27.9H55c1.6,0,2.8-0.3,3.8-0.8c1-0.5,1.7-1.3,2.1-2.2c0.5-1,0.7-2.2,0.7-3.5c0-0.9-0.2-1.8-0.5-2.5
		c-0.3-0.7-0.7-1.3-1.2-1.7c-0.5-0.4-1.1-0.7-1.7-0.8c0.5-0.1,1-0.3,1.4-0.6c0.4-0.3,0.7-0.7,0.9-1.1c0.2-0.4,0.4-0.9,0.5-1.4
		c0.1-0.5,0.2-1,0.2-1.5c0-0.8-0.1-1.6-0.3-2.3c-0.2-0.7-0.6-1.3-1.1-1.9c-0.5-0.5-1.1-1-1.9-1.3c-0.8-0.3-1.8-0.5-2.9-0.5h-9.2
		V27.9z"/>
	<path class="st6" d="M37.1,9.1c0,0.2,0.1,0.4,0.2,0.5c0.1,0.1,0.3,0.2,0.5,0.2H41c0.2,0,0.4-0.1,0.5-0.2c0.1-0.1,0.2-0.3,0.2-0.5
		V6.4c0-0.2-0.1-0.4-0.2-0.6c-0.1-0.1-0.3-0.2-0.5-0.2h-3.2c-0.2,0-0.4,0.1-0.5,0.2c-0.1,0.1-0.2,0.3-0.2,0.6V9.1z"/>
	<rect x="37.3" y="11.7" class="st6" width="4.3" height="16.2"/>
	<path class="st7" d="M18.8,10.4H8.3c-1.9,0-3.4,1.5-3.4,3.4v10.6c0,1.9,1.5,3.4,3.4,3.4h10.6c1.9,0,3.4-1.5,3.4-3.4V13.8
		C22.3,11.9,20.7,10.4,18.8,10.4L18.8,10.4z M18.8,12.8c0.5,0,0.9,0.4,0.9,0.9v10.6c0,0.5-0.4,0.9-0.9,0.9H8.3
		c-0.5,0-0.9-0.4-0.9-0.9V13.8c0-0.5,0.4-0.9,0.9-0.9H18.8z"/>
</g>
</svg>
